<svg width="30" height="30" viewBox="0 0 30 30" fill="none" xmlns="http://www.w3.org/2000/svg">
  <path d="M3 7.5C3 7.30109 3.07902 7.11032 3.21967 6.96967C3.36032 6.82902 3.55109 6.75 3.75 6.75H26.25C26.4489 6.75 26.6397 6.82902 26.7803 6.96967C26.921 7.11032 27 7.30109 27 7.5C27 7.69891 26.921 7.88968 26.7803 8.03033C26.6397 8.17098 26.4489 8.25 26.25 8.25H3.75C3.55109 8.25 3.36032 8.17098 3.21967 8.03033C3.07902 7.88968 3 7.69891 3 7.5ZM3 15.04C3 14.8411 3.07902 14.6503 3.21967 14.5097C3.36032 14.369 3.55109 14.29 3.75 14.29H26.25C26.4489 14.29 26.6397 14.369 26.7803 14.5097C26.921 14.6503 27 14.8411 27 15.04C27 15.2389 26.921 15.4297 26.7803 15.5703C26.6397 15.711 26.4489 15.79 26.25 15.79H3.75C3.55109 15.79 3.36032 15.711 3.21967 15.5703C3.07902 15.4297 3 15.2389 3 15.04ZM3.21967 22.0497C3.36032 21.909 3.55109 21.83 3.75 21.83H26.25C26.4489 21.83 26.6397 21.909 26.7803 22.0497C26.921 22.1903 27 22.3811 27 22.58C27 22.7789 26.921 22.9697 26.7803 23.1103C26.6397 23.251 26.4489 23.33 26.25 23.33H3.75C3.55109 23.33 3.36032 23.251 3.21967 23.1103C3.07902 22.9697 3 22.7789 3 22.58C3 22.3811 3.07902 22.1903 3.21967 22.0497Z" fill="white" stroke="white" />
</svg>