<svg width="25" height="25" viewBox="0 0 25 25" fill="none" xmlns="http://www.w3.org/2000/svg">
  <path d="M18.0218 10.9373H24.1656C24.2398 10.9374 24.3125 10.9585 24.3751 10.9984C24.4377 11.0382 24.4877 11.0951 24.5192 11.1623C24.5507 11.2295 24.5623 11.3043 24.5528 11.3779C24.5434 11.4515 24.5131 11.5209 24.4656 11.5779L21.3937 15.2655C21.357 15.3094 21.3112 15.3448 21.2593 15.369C21.2075 15.3933 21.1509 15.4059 21.0937 15.4059C21.0365 15.4059 20.9799 15.3933 20.9281 15.369C20.8762 15.3448 20.8304 15.3094 20.7937 15.2655L17.7218 11.5779C17.6743 11.5209 17.6441 11.4515 17.6346 11.3779C17.6251 11.3043 17.6367 11.2295 17.6682 11.1623C17.6997 11.0951 17.7497 11.0382 17.8123 10.9984C17.8749 10.9585 17.9476 10.9374 18.0218 10.9373V10.9373ZM0.834326 14.0623H6.97808C7.0523 14.0623 7.12498 14.0411 7.18761 14.0013C7.25023 13.9614 7.30021 13.9046 7.33169 13.8374C7.36317 13.7701 7.37484 13.6953 7.36535 13.6217C7.35585 13.5481 7.32558 13.4787 7.27808 13.4217L4.2062 9.7342C4.16954 9.69024 4.12367 9.65487 4.07183 9.6306C4.01998 9.60633 3.96344 9.59375 3.9062 9.59375C3.84896 9.59375 3.79242 9.60633 3.74058 9.6306C3.68874 9.65487 3.64286 9.69024 3.6062 9.7342L0.534326 13.4217C0.486823 13.4787 0.456551 13.5481 0.447057 13.6217C0.437562 13.6953 0.449238 13.7701 0.480716 13.8374C0.512194 13.9046 0.562172 13.9614 0.624797 14.0013C0.687422 14.0411 0.760102 14.0623 0.834326 14.0623V14.0623Z" fill="black" />
  <path fill-rule="evenodd" clip-rule="evenodd" d="M12.5002 4.68747C10.0752 4.68747 7.90645 5.79215 6.47363 7.52809C6.40965 7.61102 6.32965 7.68023 6.23838 7.73162C6.14712 7.78301 6.04645 7.81552 5.94237 7.82722C5.83828 7.83893 5.73291 7.82958 5.63251 7.79974C5.53211 7.7699 5.43874 7.72018 5.35794 7.65353C5.27714 7.58688 5.21057 7.50467 5.16219 7.41177C5.1138 7.31888 5.08459 7.2172 5.07629 7.11279C5.06799 7.00838 5.08076 6.90337 5.11386 6.804C5.14696 6.70463 5.1997 6.61292 5.26895 6.53434C6.41299 5.14923 7.9308 4.12186 9.64186 3.57443C11.3529 3.027 13.1852 2.98255 14.9208 3.44636C16.6564 3.91017 18.2222 4.86272 19.4321 6.19073C20.642 7.51873 21.4449 9.1663 21.7455 10.9375H20.1564C19.7957 9.17311 18.8367 7.58745 17.4417 6.44863C16.0466 5.30981 14.3011 4.68769 12.5002 4.68747V4.68747ZM4.84395 14.0625C5.13974 15.5072 5.83824 16.8388 6.85875 17.9033C7.87926 18.9679 9.18013 19.722 10.6111 20.0785C12.042 20.4351 13.5446 20.3795 14.9453 19.9183C16.346 19.457 17.5877 18.6089 18.5268 17.4718C18.5907 17.3889 18.6707 17.3197 18.762 17.2683C18.8533 17.2169 18.9539 17.1844 19.058 17.1727C19.1621 17.161 19.2675 17.1704 19.3679 17.2002C19.4683 17.23 19.5617 17.2798 19.6424 17.3464C19.7232 17.4131 19.7898 17.4953 19.8382 17.5882C19.8866 17.6811 19.9158 17.7827 19.9241 17.8871C19.9324 17.9915 19.9196 18.0966 19.8865 18.1959C19.8534 18.2953 19.8007 18.387 19.7314 18.4656C18.5874 19.8507 17.0696 20.8781 15.3585 21.4255C13.6475 21.9729 11.8152 22.0174 10.0796 21.5536C8.34402 21.0898 6.77817 20.1372 5.5683 18.8092C4.35843 17.4812 3.55546 15.8336 3.25488 14.0625H4.84395Z" fill="black" />
</svg>